<svg xmlns="http://www.w3.org/2000/svg" viewBox="0 0 841.9 595.3"><path d="M323.3 297.9l-17-30.4h-9.8v30.4h-21.6v-86.1h37.7c8.6 0 15.2 1.8 20.6 5.8 6.6 4.8 10.1 12.8 10.1 21.4 0 10.5-5.1 20.8-16.3 25.4l19.8 33.6h-23.5zm-13.6-69.2h-13.4v22.8h13.4c7.7 0 12.6-4.5 12.6-11.5 0-7.9-5.3-11.3-12.6-11.3zm46.9 69.2v-86.1h21.6v86.1h-21.6zm75.7-29.8h-17.9v29.8h-21.5v-86.1h38.9c19.1 0 30.2 11.7 30.2 27.7 0 14.1-8.7 28.6-29.7 28.6zm-4-39.4h-13.9v22.8h13.9c7.4 0 12.6-3.9 12.6-11.6-.1-7.4-4.9-11.2-12.6-11.2zm44.5 69.2v-86.1h63.4v17.5h-41.9v16.4h35.3v17.4h-35.3v17.1h42.1v17.6h-63.6zm161.1 0l-33.7-50.6h-.2v50.6h-20v-86.1h20.9l32.7 48.7h.2v-48.7h20v86.1h-19.9zm69.2 1.5c-19 0-36.7-9.5-36.7-31v-26.2c0-21.1 17.1-31.8 36.1-31.8 16.8 0 35 8.5 35 28.4v4.1h-20.3v-2.1c0-8.9-7.6-12.8-14.2-12.8-7.6 0-15 4-15 13.8v26.1c0 8.8 6.4 13.9 15.2 13.9 6.6 0 14-3.7 14-12.8v-2.1h20.3v4.2c0 19.8-17.8 28.3-34.4 28.3zm81 0c-19 0-36.7-9.5-36.7-31v-26.2c0-21.1 17.1-31.8 36.1-31.8 16.8 0 35 8.5 35 28.4v4.1h-20.3v-2.1c0-8.9-7.6-12.8-14.2-12.8-7.6 0-15 4-15 13.8v26.1c0 8.8 6.4 13.9 15.2 13.9 6.6 0 14-3.7 14-12.8v-2.1h20.3v4.2c0 19.8-17.8 28.3-34.4 28.3z" fill="#25316a"/><linearGradient id="a" gradientUnits="userSpaceOnUse" x1="50.233" y1="394.301" x2="208.013" y2="236.521"><stop offset="0" stop-color="#25316a"/><stop offset=".061" stop-color="#293269"/><stop offset=".122" stop-color="#343468"/><stop offset=".183" stop-color="#453764"/><stop offset=".245" stop-color="#5b3c60"/><stop offset=".306" stop-color="#764459"/><stop offset=".368" stop-color="#964d4f"/><stop offset=".429" stop-color="#bf5a3d"/><stop offset=".487" stop-color="#f36c21"/><stop offset="1" stop-color="#9c9c9c"/></linearGradient><path d="M184.5 272.6V213l-55.3-32-55.3 32v59.6l-51.6 29.8v63.9l55.3 32 51.6-29.8 51.6 29.8 55.3-32v-63.9l-51.6-29.8zm-55.4 27.5l-44-25.4 44-25.4 44 25.4-44 25.4zm-47.8-18.8l44 25.4v50.8l-44-25.4v-50.8zm51.6 25.4l44-25.4v50.8l-44 25.4v-50.8zm-51.6-89.4l47.8-27.6 47.8 27.6v50.8l-47.8-27.6-47.8 27.6v-50.8zM29.8 361.9v-55.2l44-25.4v55.1l47.9 27.6-44.1 25.4-47.8-27.5zm198.7 0l-47.8 27.6-44.1-25.4 47.9-27.6v-55.1l44 25.4v55.1z" fill="url(#a)"/><path d="M294.5 364.9L280 327.1h-.2c.3 3 .4 6.6.4 10.7v27.1h-4.6v-42.6h7.5l13.5 35.2h.2l13.6-35.2h7.4v42.6h-5v-27.5c0-3.1.1-6.6.4-10.3h-.2l-14.6 37.7h-3.9zm47.8.6c-4.7 0-8.5-1.4-11.2-4.3-2.7-2.9-4.1-6.9-4.1-12 0-5.2 1.3-9.2 3.8-12.3s5.9-4.5 10.2-4.5c4 0 7.2 1.3 9.5 4 2.3 2.6 3.5 6.1 3.5 10.4v3.1h-22c.1 3.8 1 6.6 2.8 8.5s4.3 2.9 7.6 2.9c3.4 0 6.8-.7 10.2-2.2v4.3c-1.7.7-3.3 1.3-4.9 1.6-1.4.3-3.2.5-5.4.5zm-1.3-29.1c-2.6 0-4.6.8-6.1 2.5s-2.4 4-2.7 6.9h16.7c0-3.1-.7-5.4-2-7-1.4-1.6-3.4-2.4-5.9-2.4zm62 28.5v-20.8c0-2.5-.5-4.5-1.6-5.7-1.1-1.3-2.8-1.9-5.1-1.9-3 0-5.2.9-6.7 2.6-1.4 1.7-2.2 4.4-2.2 8v17.8h-4.8v-20.8c0-2.5-.5-4.5-1.6-5.7-1.1-1.3-2.8-1.9-5.1-1.9-3 0-5.3.9-6.7 2.7-1.4 1.8-2.1 4.8-2.1 8.9v16.8h-4.8v-32h3.9l.8 4.4h.2c.9-1.6 2.2-2.8 3.9-3.6 1.7-.9 3.5-1.3 5.6-1.3 5 0 8.3 1.8 9.8 5.4h.2c1-1.7 2.3-3 4.1-4s3.9-1.5 6.2-1.5c3.6 0 6.3.9 8.1 2.8 1.8 1.9 2.7 4.8 2.7 8.9v20.8H403zm29.7-32.5c4.2 0 7.5 1.4 9.8 4.3 2.3 2.9 3.5 6.9 3.5 12.2s-1.2 9.3-3.5 12.2c-2.3 2.9-5.6 4.4-9.8 4.4-2.1 0-4-.4-5.7-1.2-1.7-.8-3.2-1.9-4.3-3.5h-.3l-1 4.1h-3.5v-45.4h4.8v11c0 2.5-.1 4.7-.2 6.6h.2c2.2-3.1 5.6-4.7 10-4.7zm-.7 4.1c-3.3 0-5.7.9-7.1 2.8-1.5 1.9-2.2 5.1-2.2 9.6s.7 7.7 2.2 9.6c1.5 1.9 3.9 2.9 7.2 2.9 3 0 5.2-1.1 6.6-3.3 1.5-2.2 2.2-5.3 2.2-9.3 0-4.2-.7-7.3-2.2-9.3-1.4-2-3.6-3-6.7-3zm35.9 29c-4.7 0-8.5-1.4-11.2-4.3-2.7-2.9-4.1-6.9-4.1-12 0-5.2 1.3-9.2 3.8-12.3 2.5-3 5.9-4.5 10.2-4.5 4 0 7.2 1.3 9.5 4 2.3 2.6 3.5 6.1 3.5 10.4v3.1h-22c.1 3.8 1 6.6 2.8 8.5s4.3 2.9 7.6 2.9c3.4 0 6.8-.7 10.2-2.2v4.3c-1.7.7-3.3 1.3-4.9 1.6-1.4.3-3.2.5-5.4.5zm-1.3-29.1c-2.6 0-4.6.8-6.1 2.5s-2.4 4-2.7 6.9h16.7c0-3.1-.7-5.4-2-7-1.4-1.6-3.4-2.4-5.9-2.4zm35.9-4c1.4 0 2.7.1 3.8.3l-.7 4.5c-1.3-.3-2.5-.4-3.5-.4-2.6 0-4.8 1-6.6 3.1-1.8 2.1-2.8 4.7-2.8 7.8v17.1h-4.8v-32h4l.6 5.9h.2c1.2-2.1 2.6-3.7 4.3-4.8 1.7-1 3.5-1.5 5.5-1.5z" fill="#5b5c87"/></svg>